<?xml version="1.0" encoding="utf-8"?>
<svg version="1.1" xmlns:xlink="http://www.w3.org/1999/xlink" width="70px" height="70px" xmlns="http://www.w3.org/2000/svg">
  <g transform="matrix(1 0 0 1 -594 -505 )">
    <path d="M 629 505  C 648.6 505  664 520.4  664 540  C 664 559.6  648.6 575  629 575  C 609.4 575  594 559.6  594 540  C 594 520.4  609.4 505  629 505  Z " fill-rule="nonzero" fill="#ffffff" stroke="none" />
    <path d="M 629 505.5  C 648.32 505.5  663.5 520.68  663.5 540  C 663.5 559.32  648.32 574.5  629 574.5  C 609.68 574.5  594.5 559.32  594.5 540  C 594.5 520.68  609.68 505.5  629 505.5  Z " stroke-width="1" stroke="#797979" fill="none" />
  </g>
</svg>